<svg width="237" height="50" viewBox="0 0 237 50" fill="none" xmlns="http://www.w3.org/2000/svg">
<g clip-path="url(#clip0)">
<path d="M77.8349 15.2722C75.1598 15.2722 72.9984 16.3711 71.6062 18.3495V15.4552H65.9636V42.2752H71.6062V32.3092C73.0352 34.2877 75.1966 35.3871 77.9448 35.3871C83.4775 35.3871 87.1048 31.3933 87.1048 25.4211C87.1048 19.3391 83.3676 15.2722 77.8349 15.2722ZM76.5158 30.6972C73.6214 30.6972 71.6062 28.499 71.6062 25.2382C71.6062 22.0504 73.6214 19.8154 76.5158 19.8154C79.4101 19.8154 81.3892 22.0867 81.3892 25.2382C81.3892 28.4622 79.4101 30.6972 76.5158 30.6972ZM95.0186 28.2792V7.98034H89.4129V28.6451C89.4129 33.2251 92.1973 35.4239 95.495 35.4239C96.7042 35.4239 97.9866 35.1305 99.2321 34.5443L98.6827 29.8544C97.9866 30.1841 97.3635 30.4038 96.7773 30.4038C95.7515 30.4038 95.0186 29.7445 95.0186 28.2792ZM114.621 15.4552V18.3127C113.192 16.3343 111.03 15.2354 108.245 15.2354C102.75 15.2722 99.1222 19.2654 99.1222 25.2382C99.1222 31.3203 102.823 35.3871 108.429 35.3871C111.103 35.3871 113.229 34.2877 114.621 32.346V35.1673H120.227V15.4552H114.621ZM109.747 30.8439C106.78 30.8439 104.801 28.6089 104.765 25.3843C104.801 22.1966 106.816 19.9253 109.747 19.9253C112.422 19.9253 114.327 21.8669 114.621 24.725V26.0442C114.327 28.9017 112.422 30.8439 109.747 30.8439ZM138.033 15.4552V23.113C138.033 26.3002 136.348 28.3155 133.526 28.3523C131.108 28.3523 129.643 26.8134 129.643 24.3217V15.4552H124.001V25.9706C124.001 30.5873 126.932 33.5553 131.621 33.5553C134.553 33.5185 136.714 32.346 138.033 30.1478V33.0053C138.033 36.0101 135.981 37.915 132.794 37.915C130.669 37.8787 128.031 36.9991 126.162 35.7535L124.77 39.7473C126.932 41.3593 130.485 42.4581 133.417 42.4949C139.535 42.5317 143.639 38.7215 143.639 33.1152V15.4552H138.033ZM159.761 15.2722C157.086 15.2722 154.924 16.3711 153.532 18.3495V15.4552H147.889V42.2752H153.532V32.3092C154.96 34.2877 157.122 35.3871 159.871 35.3871C165.403 35.3871 169.03 31.3933 169.03 25.4211C169.03 19.3391 165.293 15.2722 159.761 15.2722ZM158.441 30.6972C155.547 30.6972 153.532 28.499 153.532 25.2382C153.532 22.0504 155.547 19.8154 158.441 19.8154C161.336 19.8154 163.314 22.0867 163.314 25.2382C163.314 28.4622 161.336 30.6972 158.441 30.6972ZM174.49 7.02819C172.878 7.02819 171.741 8.20065 171.741 9.84946C171.741 11.4615 172.878 12.6707 174.49 12.6707C176.102 12.6707 177.237 11.4615 177.237 9.84946C177.237 8.20065 176.102 7.02819 174.49 7.02819ZM171.668 15.4552V35.1673H177.311V15.4552H171.668ZM194.787 22.1603L198.598 19.4121C196.839 16.7744 193.835 15.2722 190.061 15.2722C184.015 15.2722 179.949 19.3391 179.949 25.3843C179.949 31.3565 184.015 35.3871 189.988 35.3871C194.018 35.3871 197.096 33.7751 198.744 31.0269L194.861 28.3891C193.871 29.9275 192.296 30.6972 190.281 30.6972C187.533 30.6972 185.591 28.5353 185.591 25.3481C185.591 22.1966 187.533 20.072 190.281 20.072C192.223 20.0352 193.725 20.8412 194.787 22.1603ZM214.28 35.1673H220.948L213.401 23.0762L220.618 15.492H214.206L206.988 22.9295V7.98034H201.346V35.1673H206.988V29.8176L209.516 27.143L214.28 35.1673ZM234.688 21.2439L236.63 17.3969C234.431 16.0046 231.647 15.1986 228.935 15.1986C224.648 15.1986 221.168 17.287 221.168 21.3538C221.168 28.2792 231.39 26.5936 231.39 29.7445C231.39 30.8071 230.328 31.2835 228.899 31.2835C226.737 31.2835 224.099 30.4038 222.047 28.8286L220.215 32.6389C222.45 34.4344 225.565 35.3871 228.752 35.3871C233.222 35.3871 236.776 33.2619 236.776 29.2314C236.813 22.2702 226.408 23.7723 226.408 20.8044C226.408 19.7786 227.36 19.3391 228.679 19.3391C230.328 19.3391 232.526 20.0352 234.688 21.2439Z" fill="#16795C"/>
<path d="M165.449 43.152L166.077 41.8186C165.243 41.267 164.102 40.895 162.935 40.895C160.986 40.895 159.665 41.857 159.665 43.396C159.665 46.5886 164.513 45.4733 164.513 47.4738C164.513 48.166 163.884 48.5638 162.833 48.5638C161.871 48.5638 160.717 48.1023 159.794 47.2556L159.139 48.5638C160.063 49.4099 161.397 49.9874 162.807 49.9874C164.782 49.9874 166.193 48.9995 166.193 47.3968C166.205 44.1652 161.358 45.2167 161.358 43.2548C161.358 42.6521 161.935 42.3186 162.82 42.3186C163.5 42.3186 164.474 42.5619 165.449 43.152ZM176.734 40.9593H173.156V49.9357H174.669V47.2298H176.734C178.991 47.2298 180.286 46.0502 180.286 44.024C180.286 42.0752 178.991 40.9593 176.734 40.9593ZM176.67 45.8706H174.669V42.3186H176.67C178.055 42.3186 178.837 42.8828 178.837 44.0624C178.837 45.281 178.055 45.8706 176.67 45.8706ZM190.994 40.9208C188.314 40.9208 186.236 42.8696 186.236 45.4475C186.236 48.0122 188.314 50 190.994 50C193.674 50 195.751 48.0122 195.751 45.4475C195.751 42.8828 193.674 40.9208 190.994 40.9208ZM191.006 42.2801C192.763 42.2801 194.199 43.6652 194.199 45.4475C194.199 47.2298 192.763 48.6407 191.006 48.6407C189.25 48.6407 187.775 47.2298 187.775 45.4475C187.775 43.6652 189.237 42.2801 191.006 42.2801ZM209.973 49.9357L207.96 46.9353C209.152 46.4733 209.819 45.4601 209.819 44.024C209.819 42.0752 208.498 40.9593 206.203 40.9593H202.561V49.9357H204.074V47.2298H206.203C206.344 47.2298 206.485 47.2298 206.613 47.2172L208.254 49.9357H209.973ZM204.074 45.8706V42.3186H206.203C207.588 42.3186 208.383 42.8828 208.383 44.0624C208.383 45.281 207.588 45.8706 206.203 45.8706H204.074ZM223.809 41.8439C222.681 41.2285 221.347 40.895 219.988 40.895C218.642 40.895 217.295 41.2285 216.192 41.8312L216.718 43.152C217.462 42.7548 218.347 42.485 219.244 42.3823V49.9357H220.757V42.3823C221.655 42.485 222.54 42.7548 223.284 43.152L223.809 41.8439ZM236.056 43.152L236.685 41.8186C235.851 41.267 234.71 40.895 233.543 40.895C231.594 40.895 230.273 41.857 230.273 43.396C230.273 46.5886 235.12 45.4733 235.12 47.4738C235.12 48.166 234.492 48.5638 233.44 48.5638C232.478 48.5638 231.324 48.1023 230.401 47.2556L229.747 48.5638C230.67 49.4099 232.004 49.9874 233.414 49.9874C235.39 49.9874 236.8 48.9995 236.8 47.3968C236.813 44.1652 231.966 45.2167 231.966 43.2548C231.966 42.6521 232.542 42.3186 233.427 42.3186C234.107 42.3186 235.081 42.5619 236.056 43.152Z" fill="#202121"/>
<path d="M21.5831 48.021L41.8924 37.8408C45.0137 36.276 47.1339 33.8426 48.319 31.0488C49.1898 28.9951 49.5618 26.7408 49.4596 24.486C49.3574 22.2246 48.7789 19.9687 47.7509 17.9182C46.2103 14.8448 43.6577 12.2317 40.1854 10.7582C34.4011 8.07098 28.5151 4.92446 22.783 2.05868C20.253 0.59777 17.5855 -0.0395579 15.0049 0.00219803C12.338 0.0450528 9.75409 0.813692 7.50147 2.14823C5.25104 3.48113 3.33686 5.37828 2.00726 7.6809C0.71063 9.92748 -0.0299891 12.5619 0.0161622 15.4349L0.0205575 15.4524V19.8429L12.3111 13.7152C13.1308 13.3064 14.1357 13.6427 14.545 14.4629C14.9538 15.2832 14.6176 16.2881 13.7978 16.6969L0.0205575 23.5657V29.3379L11.0529 23.8377C11.8727 23.4289 12.8781 23.7652 13.2869 24.5855C13.6962 25.4057 13.3594 26.4106 12.5396 26.8194L0.0205575 33.0614V33.924L0.0161622 33.9465C-0.016803 35.542 0.204064 37.0798 0.635908 38.527L33.7638 22.0098C34.5835 21.601 35.5889 21.9373 35.9982 22.7575C36.407 23.5778 36.0697 24.5833 35.2505 24.9915L1.93968 41.5994C3.19236 43.8333 4.98567 45.7255 7.10423 47.1046C9.4118 48.6078 12.1012 49.4989 14.8912 49.5566C17.0993 49.6022 19.3766 49.127 21.5831 48.021ZM16.7718 20.9862L23.0374 17.8628C23.8577 17.4534 24.8626 17.7897 25.2714 18.6105C25.6801 19.4303 25.3439 20.4357 24.5236 20.8445L18.2586 23.9679C17.4388 24.3767 16.4339 24.0404 16.0246 23.2202C15.6159 22.3999 15.9521 21.395 16.7718 20.9862Z" fill="#16795C"/>
</g>
<defs>
<clipPath id="clip0">
<rect width="236.813" height="50" fill="white"/>
</clipPath>
</defs>
</svg>
