<svg width="136" height="29" viewBox="0 0 136 29" fill="none" xmlns="http://www.w3.org/2000/svg">
<g clip-path="url(#clip0)">
<path d="M44.4191 8.70506C42.8945 8.70506 41.6624 9.33152 40.8688 10.4592V8.80956H37.6527V24.0968H40.8688V18.4162C41.6835 19.5441 42.9156 20.1705 44.4818 20.1705C47.6355 20.1705 49.7028 17.8942 49.7028 14.4899C49.7028 11.0233 47.5728 8.70506 44.4191 8.70506ZM43.6674 17.4972C42.0175 17.4972 40.8688 16.2443 40.8688 14.3857C40.8688 12.5687 42.0175 11.2946 43.6674 11.2946C45.3173 11.2946 46.4452 12.5894 46.4452 14.3857C46.4452 16.2235 45.3173 17.4972 43.6674 17.4972ZM54.2139 16.119V4.54901H51.0187V16.3277C51.0187 18.9384 52.6059 20.1913 54.4853 20.1913C55.1747 20.1913 55.9057 20.0245 56.6159 19.6902L56.3024 17.0171C55.9057 17.2048 55.5506 17.3301 55.2163 17.3301C54.6317 17.3301 54.2139 16.9542 54.2139 16.119ZM65.387 8.80956V10.4384C64.5726 9.31045 63.3404 8.68398 61.7532 8.68398C58.6206 8.70506 56.5529 10.9814 56.5529 14.3857C56.5529 17.8523 58.6622 20.1705 61.8577 20.1705C63.3823 20.1705 64.5937 19.5441 65.387 18.4372V20.0453H68.5823V8.80956H65.387ZM62.6095 17.581C60.9177 17.581 59.7901 16.307 59.769 14.4691C59.7901 12.6521 60.9388 11.3573 62.6095 11.3573C64.1341 11.3573 65.2198 12.4641 65.387 14.0932V14.845C65.2198 16.4738 64.1341 17.581 62.6095 17.581ZM78.7322 8.80956V13.1743C78.7322 14.9911 77.7717 16.1398 76.1634 16.1609C74.7852 16.1609 73.9497 15.2835 73.9497 13.8634V8.80956H70.7336V14.8031C70.7336 17.4346 72.4043 19.1263 75.0773 19.1263C76.7483 19.1053 77.9804 18.4372 78.7322 17.184V18.8131C78.7322 20.5256 77.5627 21.6117 75.7456 21.6117C74.5343 21.5906 73.0308 21.0895 71.9658 20.3793L71.1719 22.6559C72.4043 23.5748 74.4301 24.2013 76.1007 24.2221C79.5884 24.2429 81.9275 22.071 81.9275 18.8758V8.80956H78.7322ZM91.1166 8.70506C89.592 8.70506 88.3599 9.33152 87.5662 10.4592V8.80956H84.3502V24.0968H87.5662V18.4162C88.3806 19.5441 89.6131 20.1705 91.1792 20.1705C94.3329 20.1705 96.4003 17.8942 96.4003 14.4899C96.4003 11.0233 94.2703 8.70506 91.1166 8.70506ZM90.3648 17.4972C88.7149 17.4972 87.5662 16.2443 87.5662 14.3857C87.5662 12.5687 88.7149 11.2946 90.3648 11.2946C92.0147 11.2946 93.1424 12.5894 93.1424 14.3857C93.1424 16.2235 92.0147 17.4972 90.3648 17.4972ZM99.5121 4.00598C98.5932 4.00598 97.9459 4.67431 97.9459 5.61401C97.9459 6.53292 98.5932 7.22204 99.5121 7.22204C100.431 7.22204 101.079 6.53292 101.079 5.61401C101.079 4.67431 100.431 4.00598 99.5121 4.00598ZM97.9041 8.80956V20.0453H101.12V8.80956H97.9041ZM111.082 12.6313L113.254 11.0648C112.252 9.56132 110.539 8.70506 108.388 8.70506C104.942 8.70506 102.624 11.0233 102.624 14.4691C102.624 17.8734 104.942 20.1705 108.346 20.1705C110.644 20.1705 112.398 19.2516 113.337 17.6852L111.124 16.1817C110.56 17.0587 109.662 17.4972 108.513 17.4972C106.947 17.4972 105.84 16.2651 105.84 14.4483C105.84 12.6521 106.947 11.441 108.513 11.441C109.62 11.4199 110.476 11.8795 111.082 12.6313ZM122.193 20.0453H125.993L121.691 13.1533L125.806 8.83035H122.151L118.036 13.0698V4.54901H114.82V20.0453H118.036V16.9961L119.478 15.4715L122.193 20.0453ZM133.825 12.1091L134.932 9.91613C133.679 9.1228 132.092 8.6632 130.546 8.6632C128.103 8.6632 126.119 9.85348 126.119 12.1717C126.119 16.119 131.945 15.1582 131.945 16.9542C131.945 17.5602 131.34 17.8315 130.525 17.8315C129.293 17.8315 127.789 17.3301 126.62 16.4322L125.576 18.6041C126.85 19.6275 128.625 20.1705 130.442 20.1705C132.99 20.1705 135.016 18.9592 135.016 16.662C135.037 12.6939 129.105 13.5502 129.105 11.8585C129.105 11.2739 129.648 11.0233 130.4 11.0233C131.34 11.0233 132.593 11.4199 133.825 12.1091Z" fill="white"/>
<path d="M94.3591 24.5965L94.717 23.8362C94.2421 23.5221 93.5914 23.31 92.9265 23.31C91.8154 23.31 91.0624 23.8584 91.0624 24.7355C91.0624 26.5554 93.8255 25.9198 93.8255 27.06C93.8255 27.4547 93.4672 27.681 92.8678 27.681C92.3196 27.681 91.6619 27.4182 91.1356 26.9355L90.7629 27.681C91.2888 28.1637 92.0491 28.4926 92.8533 28.4926C93.9789 28.4926 94.7831 27.9296 94.7831 27.0161C94.7902 25.174 92.0272 25.7734 92.0272 24.6552C92.0272 24.3115 92.3561 24.1216 92.8604 24.1216C93.248 24.1216 93.8035 24.2605 94.3591 24.5965ZM100.791 23.3467H98.752V28.4633H99.6146V26.921H100.791C102.078 26.921 102.816 26.2484 102.816 25.0937C102.816 23.9826 102.078 23.3467 100.791 23.3467ZM100.755 26.1462H99.6146V24.1216H100.755C101.544 24.1216 101.99 24.443 101.99 25.1156C101.99 25.8099 101.544 26.1462 100.755 26.1462ZM108.919 23.3248C107.392 23.3248 106.208 24.4356 106.208 25.905C106.208 27.3669 107.392 28.5 108.919 28.5C110.447 28.5 111.631 27.3669 111.631 25.905C111.631 24.443 110.447 23.3248 108.919 23.3248ZM108.927 24.0996C109.928 24.0996 110.747 24.889 110.747 25.905C110.747 26.921 109.928 27.7252 108.927 27.7252C107.926 27.7252 107.085 26.921 107.085 25.905C107.085 24.889 107.918 24.0996 108.927 24.0996ZM119.738 28.4633L118.59 26.753C119.27 26.4896 119.65 25.9121 119.65 25.0937C119.65 23.9826 118.897 23.3467 117.589 23.3467H115.513V28.4633H116.375V26.921H117.589C117.669 26.921 117.749 26.921 117.822 26.9136L118.758 28.4633H119.738ZM116.375 26.1462V24.1216H117.589C118.378 24.1216 118.831 24.443 118.831 25.1156C118.831 25.8099 118.378 26.1462 117.589 26.1462H116.375ZM127.625 23.851C126.981 23.5002 126.221 23.31 125.446 23.31C124.679 23.31 123.911 23.5002 123.283 23.8436L123.582 24.5965C124.006 24.3699 124.511 24.2164 125.022 24.158V28.4633H125.885V24.158C126.397 24.2164 126.901 24.3699 127.325 24.5965L127.625 23.851ZM134.605 24.5965L134.963 23.8362C134.488 23.5221 133.838 23.31 133.172 23.31C132.061 23.31 131.308 23.8584 131.308 24.7355C131.308 26.5554 134.071 25.9198 134.071 27.06C134.071 27.4547 133.713 27.681 133.114 27.681C132.566 27.681 131.908 27.4182 131.382 26.9355L131.009 27.681C131.535 28.1637 132.295 28.4926 133.099 28.4926C134.225 28.4926 135.029 27.9296 135.029 27.0161C135.036 25.174 132.273 25.7734 132.273 24.6552C132.273 24.3115 132.602 24.1216 133.107 24.1216C133.494 24.1216 134.05 24.2605 134.605 24.5965Z" fill="white"/>
<path d="M12.3557 27.3718L23.932 21.569C25.7114 20.6771 26.9196 19.2901 27.5951 17.6977C28.0917 16.5274 28.3033 15.2422 28.2455 13.9568C28.1871 12.668 27.8573 11.3821 27.2716 10.2134C26.3934 8.46159 24.9383 6.97202 22.9589 6.13227C19.662 4.60055 16.307 2.80686 13.0397 1.17349C11.5977 0.340857 10.0771 -0.0224936 8.606 0.00114132C7.08596 0.0259153 5.61319 0.463873 4.32922 1.22446C3.04667 1.9842 1.95548 3.06571 1.19774 4.37816C0.458504 5.65871 0.0362076 7.16024 0.06269 8.7976L0.0652529 8.80785V11.3103L7.07058 7.81775C7.53787 7.58482 8.1108 7.77617 8.34402 8.24375C8.57695 8.71132 8.38531 9.28425 7.91802 9.51718L0.0652529 13.4323V16.7227L6.35356 13.5875C6.82085 13.3546 7.39378 13.5459 7.627 14.0138C7.86022 14.4811 7.66829 15.054 7.201 15.2869L0.0652529 18.8447V19.3365L0.06269 19.3493C0.043896 20.2591 0.169759 21.1356 0.416075 21.9603L19.2987 12.5456C19.7657 12.3127 20.3392 12.5043 20.5724 12.9719C20.8053 13.4392 20.6131 14.0124 20.1461 14.2453L1.15901 23.7118C1.87318 24.985 2.89546 26.0636 4.10255 26.8495C5.41813 27.7064 6.95099 28.2144 8.54136 28.2471C9.79999 28.2733 11.0979 28.0022 12.3557 27.3718ZM9.61347 11.9621L13.1846 10.1818C13.6522 9.94859 14.2248 10.1402 14.4581 10.6078C14.6913 11.0754 14.4996 11.6483 14.0321 11.8812L10.4609 13.6616C9.99362 13.8948 9.42069 13.7031 9.18747 13.2356C8.95454 12.768 9.14618 12.1953 9.61347 11.9621Z" fill="white"/>
</g>
<defs>
<clipPath id="clip0">
<rect width="135.09" height="28.5" fill="white"/>
</clipPath>
</defs>
</svg>
